<mxfile host="app.diagrams.net" modified="2021-04-18T20:47:31.624Z" agent="5.0 (Windows)" etag="Hw3HYRDnJA_KUo0RnsCE" version="14.6.1" type="github">
  <diagram id="QKjoD6d5lxjH6_U_eepW" name="Page-1">
    <mxGraphModel dx="1123" dy="734" grid="1" gridSize="10" guides="1" tooltips="1" connect="1" arrows="1" fold="1" page="1" pageScale="1" pageWidth="850" pageHeight="1100" math="0" shadow="0">
      <root>
        <mxCell id="0" />
        <mxCell id="1" parent="0" />
        <mxCell id="9FKqJSR3UCs3D0KS4RGU-41" style="edgeStyle=orthogonalEdgeStyle;rounded=0;orthogonalLoop=1;jettySize=auto;html=1;endArrow=none;endFill=0;" parent="1" source="9FKqJSR3UCs3D0KS4RGU-1" target="9FKqJSR3UCs3D0KS4RGU-2" edge="1">
          <mxGeometry relative="1" as="geometry" />
        </mxCell>
        <mxCell id="9FKqJSR3UCs3D0KS4RGU-42" style="edgeStyle=orthogonalEdgeStyle;rounded=0;orthogonalLoop=1;jettySize=auto;html=1;endArrow=none;endFill=0;" parent="1" target="9FKqJSR3UCs3D0KS4RGU-3" edge="1">
          <mxGeometry relative="1" as="geometry">
            <mxPoint x="160" y="80" as="sourcePoint" />
          </mxGeometry>
        </mxCell>
        <mxCell id="9FKqJSR3UCs3D0KS4RGU-48" style="edgeStyle=orthogonalEdgeStyle;rounded=0;orthogonalLoop=1;jettySize=auto;html=1;entryX=0;entryY=0.5;entryDx=0;entryDy=0;endArrow=none;endFill=0;" parent="1" source="9FKqJSR3UCs3D0KS4RGU-1" target="9FKqJSR3UCs3D0KS4RGU-4" edge="1">
          <mxGeometry relative="1" as="geometry" />
        </mxCell>
        <mxCell id="9FKqJSR3UCs3D0KS4RGU-49" style="edgeStyle=orthogonalEdgeStyle;rounded=0;orthogonalLoop=1;jettySize=auto;html=1;entryX=0;entryY=0.5;entryDx=0;entryDy=0;endArrow=none;endFill=0;" parent="1" source="9FKqJSR3UCs3D0KS4RGU-1" target="9FKqJSR3UCs3D0KS4RGU-5" edge="1">
          <mxGeometry relative="1" as="geometry" />
        </mxCell>
        <mxCell id="9FKqJSR3UCs3D0KS4RGU-50" style="edgeStyle=orthogonalEdgeStyle;rounded=0;orthogonalLoop=1;jettySize=auto;html=1;entryX=0;entryY=0.5;entryDx=0;entryDy=0;endArrow=none;endFill=0;" parent="1" source="9FKqJSR3UCs3D0KS4RGU-1" target="9FKqJSR3UCs3D0KS4RGU-9" edge="1">
          <mxGeometry relative="1" as="geometry" />
        </mxCell>
        <mxCell id="9FKqJSR3UCs3D0KS4RGU-51" style="edgeStyle=orthogonalEdgeStyle;rounded=0;orthogonalLoop=1;jettySize=auto;html=1;entryX=0;entryY=0.5;entryDx=0;entryDy=0;endArrow=none;endFill=0;" parent="1" source="9FKqJSR3UCs3D0KS4RGU-1" target="9FKqJSR3UCs3D0KS4RGU-11" edge="1">
          <mxGeometry relative="1" as="geometry" />
        </mxCell>
        <mxCell id="9FKqJSR3UCs3D0KS4RGU-83" style="edgeStyle=orthogonalEdgeStyle;rounded=0;jumpSize=0;orthogonalLoop=1;jettySize=auto;html=1;endArrow=ERzeroToMany;endFill=1;strokeColor=#000000;startArrow=ERmandOne;startFill=0;" parent="1" source="9FKqJSR3UCs3D0KS4RGU-1" target="9FKqJSR3UCs3D0KS4RGU-19" edge="1">
          <mxGeometry relative="1" as="geometry">
            <mxPoint x="90" y="280" as="targetPoint" />
            <Array as="points">
              <mxPoint x="90" y="390" />
            </Array>
          </mxGeometry>
        </mxCell>
        <mxCell id="9FKqJSR3UCs3D0KS4RGU-1" value="&lt;div&gt;USER&lt;/div&gt;" style="rounded=0;whiteSpace=wrap;html=1;" parent="1" vertex="1">
          <mxGeometry x="30" y="50" width="120" height="60" as="geometry" />
        </mxCell>
        <mxCell id="9FKqJSR3UCs3D0KS4RGU-2" value="&lt;div&gt;imię&lt;/div&gt;" style="ellipse;whiteSpace=wrap;html=1;" parent="1" vertex="1">
          <mxGeometry x="190" y="10" width="100" height="40" as="geometry" />
        </mxCell>
        <mxCell id="9FKqJSR3UCs3D0KS4RGU-3" value="&lt;div&gt;nazwisko&lt;/div&gt;" style="ellipse;whiteSpace=wrap;html=1;" parent="1" vertex="1">
          <mxGeometry x="190" y="60" width="100" height="40" as="geometry" />
        </mxCell>
        <mxCell id="9FKqJSR3UCs3D0KS4RGU-4" value="&lt;u&gt;email&lt;/u&gt;" style="ellipse;whiteSpace=wrap;html=1;" parent="1" vertex="1">
          <mxGeometry x="190" y="110" width="100" height="40" as="geometry" />
        </mxCell>
        <mxCell id="9FKqJSR3UCs3D0KS4RGU-5" value="&lt;div&gt;hasło&lt;/div&gt;" style="ellipse;whiteSpace=wrap;html=1;" parent="1" vertex="1">
          <mxGeometry x="190" y="160" width="100" height="40" as="geometry" />
        </mxCell>
        <mxCell id="9FKqJSR3UCs3D0KS4RGU-9" value="&lt;div&gt;hobby&lt;/div&gt;" style="shape=mxgraph.bpmn.shape;html=1;verticalLabelPosition=middle;labelBackgroundColor=none;verticalAlign=middle;align=center;perimeter=ellipsePerimeter;outlineConnect=0;outline=throwing;symbol=general;shadow=0;sketch=0;strokeColor=#000000;labelPosition=center;" parent="1" vertex="1">
          <mxGeometry x="190" y="210" width="100" height="40" as="geometry" />
        </mxCell>
        <mxCell id="9FKqJSR3UCs3D0KS4RGU-11" value="telefon" style="ellipse;whiteSpace=wrap;html=1;shadow=0;labelBackgroundColor=none;sketch=0;strokeColor=#000000;" parent="1" vertex="1">
          <mxGeometry x="190" y="260" width="100" height="40" as="geometry" />
        </mxCell>
        <mxCell id="9FKqJSR3UCs3D0KS4RGU-52" style="edgeStyle=orthogonalEdgeStyle;rounded=0;orthogonalLoop=1;jettySize=auto;html=1;endArrow=none;endFill=0;" parent="1" source="9FKqJSR3UCs3D0KS4RGU-12" target="9FKqJSR3UCs3D0KS4RGU-13" edge="1">
          <mxGeometry relative="1" as="geometry" />
        </mxCell>
        <mxCell id="9FKqJSR3UCs3D0KS4RGU-53" style="edgeStyle=orthogonalEdgeStyle;rounded=0;orthogonalLoop=1;jettySize=auto;html=1;endArrow=none;endFill=0;" parent="1" source="9FKqJSR3UCs3D0KS4RGU-12" target="9FKqJSR3UCs3D0KS4RGU-14" edge="1">
          <mxGeometry relative="1" as="geometry" />
        </mxCell>
        <mxCell id="9FKqJSR3UCs3D0KS4RGU-54" style="edgeStyle=orthogonalEdgeStyle;rounded=0;orthogonalLoop=1;jettySize=auto;html=1;endArrow=none;endFill=0;" parent="1" source="9FKqJSR3UCs3D0KS4RGU-12" target="9FKqJSR3UCs3D0KS4RGU-15" edge="1">
          <mxGeometry relative="1" as="geometry" />
        </mxCell>
        <mxCell id="9FKqJSR3UCs3D0KS4RGU-55" style="edgeStyle=orthogonalEdgeStyle;rounded=0;orthogonalLoop=1;jettySize=auto;html=1;entryX=0;entryY=0.5;entryDx=0;entryDy=0;endArrow=none;endFill=0;" parent="1" source="9FKqJSR3UCs3D0KS4RGU-12" target="9FKqJSR3UCs3D0KS4RGU-16" edge="1">
          <mxGeometry relative="1" as="geometry" />
        </mxCell>
        <mxCell id="9FKqJSR3UCs3D0KS4RGU-56" style="edgeStyle=orthogonalEdgeStyle;rounded=0;orthogonalLoop=1;jettySize=auto;html=1;entryX=0;entryY=0.5;entryDx=0;entryDy=0;endArrow=none;endFill=0;" parent="1" source="9FKqJSR3UCs3D0KS4RGU-12" target="9FKqJSR3UCs3D0KS4RGU-18" edge="1">
          <mxGeometry relative="1" as="geometry" />
        </mxCell>
        <mxCell id="9FKqJSR3UCs3D0KS4RGU-12" value="PRODUKT" style="rounded=0;whiteSpace=wrap;html=1;shadow=0;labelBackgroundColor=none;sketch=0;strokeColor=#000000;" parent="1" vertex="1">
          <mxGeometry x="440" y="50" width="120" height="60" as="geometry" />
        </mxCell>
        <mxCell id="9FKqJSR3UCs3D0KS4RGU-13" value="&lt;div&gt;nazwa&lt;/div&gt;" style="ellipse;whiteSpace=wrap;html=1;shadow=0;labelBackgroundColor=none;sketch=0;strokeColor=#000000;" parent="1" vertex="1">
          <mxGeometry x="600" y="10" width="100" height="40" as="geometry" />
        </mxCell>
        <mxCell id="9FKqJSR3UCs3D0KS4RGU-14" value="&lt;u&gt;kod kreskowy&lt;br&gt;&lt;/u&gt;" style="ellipse;whiteSpace=wrap;html=1;shadow=0;labelBackgroundColor=none;sketch=0;strokeColor=#000000;" parent="1" vertex="1">
          <mxGeometry x="600" y="60" width="100" height="40" as="geometry" />
        </mxCell>
        <mxCell id="9FKqJSR3UCs3D0KS4RGU-15" value="&lt;div&gt;cena netto&lt;/div&gt;" style="ellipse;whiteSpace=wrap;html=1;shadow=0;labelBackgroundColor=none;sketch=0;strokeColor=#000000;" parent="1" vertex="1">
          <mxGeometry x="600" y="110" width="100" height="40" as="geometry" />
        </mxCell>
        <mxCell id="9FKqJSR3UCs3D0KS4RGU-16" value="stawka VAT" style="ellipse;whiteSpace=wrap;html=1;shadow=0;labelBackgroundColor=none;sketch=0;strokeColor=#000000;" parent="1" vertex="1">
          <mxGeometry x="600" y="160" width="100" height="40" as="geometry" />
        </mxCell>
        <mxCell id="9FKqJSR3UCs3D0KS4RGU-18" value="cena brutto" style="ellipse;whiteSpace=wrap;html=1;shadow=0;labelBackgroundColor=none;sketch=0;strokeColor=#000000;dashed=1;" parent="1" vertex="1">
          <mxGeometry x="600" y="210" width="100" height="40" as="geometry" />
        </mxCell>
        <mxCell id="9FKqJSR3UCs3D0KS4RGU-57" style="edgeStyle=orthogonalEdgeStyle;rounded=0;orthogonalLoop=1;jettySize=auto;html=1;entryX=1;entryY=0.5;entryDx=0;entryDy=0;endArrow=none;endFill=0;" parent="1" source="9FKqJSR3UCs3D0KS4RGU-19" target="9FKqJSR3UCs3D0KS4RGU-20" edge="1">
          <mxGeometry relative="1" as="geometry" />
        </mxCell>
        <mxCell id="9FKqJSR3UCs3D0KS4RGU-58" style="edgeStyle=orthogonalEdgeStyle;rounded=0;orthogonalLoop=1;jettySize=auto;html=1;entryX=1;entryY=0.5;entryDx=0;entryDy=0;endArrow=none;endFill=0;" parent="1" source="9FKqJSR3UCs3D0KS4RGU-19" target="9FKqJSR3UCs3D0KS4RGU-21" edge="1">
          <mxGeometry relative="1" as="geometry" />
        </mxCell>
        <mxCell id="9FKqJSR3UCs3D0KS4RGU-59" style="edgeStyle=orthogonalEdgeStyle;rounded=0;orthogonalLoop=1;jettySize=auto;html=1;entryX=1;entryY=0.5;entryDx=0;entryDy=0;endArrow=none;endFill=0;" parent="1" source="9FKqJSR3UCs3D0KS4RGU-19" target="9FKqJSR3UCs3D0KS4RGU-22" edge="1">
          <mxGeometry relative="1" as="geometry" />
        </mxCell>
        <mxCell id="9FKqJSR3UCs3D0KS4RGU-60" style="edgeStyle=orthogonalEdgeStyle;rounded=0;orthogonalLoop=1;jettySize=auto;html=1;entryX=0;entryY=0.5;entryDx=0;entryDy=0;endArrow=none;endFill=0;" parent="1" source="9FKqJSR3UCs3D0KS4RGU-19" target="9FKqJSR3UCs3D0KS4RGU-23" edge="1">
          <mxGeometry relative="1" as="geometry" />
        </mxCell>
        <mxCell id="9FKqJSR3UCs3D0KS4RGU-61" style="edgeStyle=orthogonalEdgeStyle;rounded=0;orthogonalLoop=1;jettySize=auto;html=1;entryX=0;entryY=0.5;entryDx=0;entryDy=0;endArrow=none;endFill=0;" parent="1" source="9FKqJSR3UCs3D0KS4RGU-19" target="9FKqJSR3UCs3D0KS4RGU-24" edge="1">
          <mxGeometry relative="1" as="geometry" />
        </mxCell>
        <mxCell id="9FKqJSR3UCs3D0KS4RGU-72" style="edgeStyle=orthogonalEdgeStyle;rounded=0;orthogonalLoop=1;jettySize=auto;html=1;endArrow=ERmandOne;endFill=0;startArrow=ERzeroToMany;startFill=1;" parent="1" source="9FKqJSR3UCs3D0KS4RGU-19" target="9FKqJSR3UCs3D0KS4RGU-12" edge="1">
          <mxGeometry relative="1" as="geometry">
            <mxPoint x="500" y="320" as="targetPoint" />
          </mxGeometry>
        </mxCell>
        <mxCell id="9FKqJSR3UCs3D0KS4RGU-19" value="&lt;div&gt;ZAMÓWIENIE&lt;/div&gt;" style="rounded=0;whiteSpace=wrap;html=1;shadow=0;labelBackgroundColor=none;sketch=0;strokeColor=#000000;" parent="1" vertex="1">
          <mxGeometry x="305" y="360" width="120" height="60" as="geometry" />
        </mxCell>
        <mxCell id="9FKqJSR3UCs3D0KS4RGU-20" value="&lt;u&gt;numer&lt;/u&gt;" style="ellipse;whiteSpace=wrap;html=1;shadow=0;labelBackgroundColor=none;sketch=0;strokeColor=#000000;" parent="1" vertex="1">
          <mxGeometry x="230" y="440" width="100" height="40" as="geometry" />
        </mxCell>
        <mxCell id="9FKqJSR3UCs3D0KS4RGU-21" value="kod towaru" style="ellipse;whiteSpace=wrap;html=1;shadow=0;labelBackgroundColor=none;sketch=0;strokeColor=#000000;" parent="1" vertex="1">
          <mxGeometry x="230" y="490" width="100" height="40" as="geometry" />
        </mxCell>
        <mxCell id="9FKqJSR3UCs3D0KS4RGU-22" value="ilość sztuk" style="ellipse;whiteSpace=wrap;html=1;shadow=0;labelBackgroundColor=none;sketch=0;strokeColor=#000000;" parent="1" vertex="1">
          <mxGeometry x="230" y="540" width="100" height="40" as="geometry" />
        </mxCell>
        <mxCell id="9FKqJSR3UCs3D0KS4RGU-23" value="wartość zamówienia" style="ellipse;whiteSpace=wrap;html=1;shadow=0;labelBackgroundColor=none;sketch=0;strokeColor=#000000;dashed=1;" parent="1" vertex="1">
          <mxGeometry x="400" y="440" width="100" height="40" as="geometry" />
        </mxCell>
        <mxCell id="9FKqJSR3UCs3D0KS4RGU-62" style="edgeStyle=orthogonalEdgeStyle;rounded=0;orthogonalLoop=1;jettySize=auto;html=1;entryX=0;entryY=0.5;entryDx=0;entryDy=0;endArrow=none;endFill=0;" parent="1" source="9FKqJSR3UCs3D0KS4RGU-24" target="9FKqJSR3UCs3D0KS4RGU-26" edge="1">
          <mxGeometry relative="1" as="geometry" />
        </mxCell>
        <mxCell id="9FKqJSR3UCs3D0KS4RGU-63" style="edgeStyle=orthogonalEdgeStyle;rounded=0;orthogonalLoop=1;jettySize=auto;html=1;entryX=0;entryY=0.5;entryDx=0;entryDy=0;endArrow=none;endFill=0;" parent="1" source="9FKqJSR3UCs3D0KS4RGU-24" target="9FKqJSR3UCs3D0KS4RGU-27" edge="1">
          <mxGeometry relative="1" as="geometry" />
        </mxCell>
        <mxCell id="9FKqJSR3UCs3D0KS4RGU-64" style="edgeStyle=orthogonalEdgeStyle;rounded=0;orthogonalLoop=1;jettySize=auto;html=1;entryX=0;entryY=0.5;entryDx=0;entryDy=0;endArrow=none;endFill=0;" parent="1" source="9FKqJSR3UCs3D0KS4RGU-24" target="9FKqJSR3UCs3D0KS4RGU-28" edge="1">
          <mxGeometry relative="1" as="geometry" />
        </mxCell>
        <mxCell id="9FKqJSR3UCs3D0KS4RGU-65" style="edgeStyle=orthogonalEdgeStyle;rounded=0;orthogonalLoop=1;jettySize=auto;html=1;entryX=0;entryY=0.5;entryDx=0;entryDy=0;endArrow=none;endFill=0;" parent="1" source="9FKqJSR3UCs3D0KS4RGU-24" target="9FKqJSR3UCs3D0KS4RGU-29" edge="1">
          <mxGeometry relative="1" as="geometry" />
        </mxCell>
        <mxCell id="9FKqJSR3UCs3D0KS4RGU-66" style="edgeStyle=orthogonalEdgeStyle;rounded=0;orthogonalLoop=1;jettySize=auto;html=1;entryX=0;entryY=0.5;entryDx=0;entryDy=0;endArrow=none;endFill=0;" parent="1" source="9FKqJSR3UCs3D0KS4RGU-24" target="9FKqJSR3UCs3D0KS4RGU-30" edge="1">
          <mxGeometry relative="1" as="geometry" />
        </mxCell>
        <mxCell id="9FKqJSR3UCs3D0KS4RGU-24" value="adres dostawy" style="ellipse;whiteSpace=wrap;html=1;shadow=0;labelBackgroundColor=none;sketch=0;strokeColor=#000000;" parent="1" vertex="1">
          <mxGeometry x="395" y="490" width="110" height="40" as="geometry" />
        </mxCell>
        <mxCell id="9FKqJSR3UCs3D0KS4RGU-26" value="&lt;div&gt;miasto&lt;/div&gt;" style="ellipse;whiteSpace=wrap;html=1;shadow=0;labelBackgroundColor=none;sketch=0;strokeColor=#000000;" parent="1" vertex="1">
          <mxGeometry x="480" y="550" width="100" height="40" as="geometry" />
        </mxCell>
        <mxCell id="9FKqJSR3UCs3D0KS4RGU-27" value="&lt;div&gt;ulica&lt;/div&gt;" style="ellipse;whiteSpace=wrap;html=1;shadow=0;labelBackgroundColor=none;sketch=0;strokeColor=#000000;" parent="1" vertex="1">
          <mxGeometry x="480" y="600" width="100" height="40" as="geometry" />
        </mxCell>
        <mxCell id="9FKqJSR3UCs3D0KS4RGU-28" value="numer domu" style="ellipse;whiteSpace=wrap;html=1;shadow=0;labelBackgroundColor=none;sketch=0;strokeColor=#000000;" parent="1" vertex="1">
          <mxGeometry x="480" y="650" width="100" height="40" as="geometry" />
        </mxCell>
        <mxCell id="9FKqJSR3UCs3D0KS4RGU-29" value="kod pocztowy" style="ellipse;whiteSpace=wrap;html=1;shadow=0;labelBackgroundColor=none;sketch=0;strokeColor=#000000;" parent="1" vertex="1">
          <mxGeometry x="480" y="700" width="100" height="40" as="geometry" />
        </mxCell>
        <mxCell id="9FKqJSR3UCs3D0KS4RGU-30" value="kraj" style="ellipse;whiteSpace=wrap;html=1;shadow=0;labelBackgroundColor=none;sketch=0;strokeColor=#000000;" parent="1" vertex="1">
          <mxGeometry x="480" y="750" width="100" height="40" as="geometry" />
        </mxCell>
      </root>
    </mxGraphModel>
  </diagram>
</mxfile>
